<?xml version="1.0" encoding="utf-8"?>
<!-- Generator: Adobe Illustrator 24.1.2, SVG Export Plug-In . SVG Version: 6.00 Build 0)  -->
<svg version="1.1" id="Слой_1" xmlns="http://www.w3.org/2000/svg" xmlns:xlink="http://www.w3.org/1999/xlink" x="0px" y="0px"
	 viewBox="0 0 192 192" style="enable-background:new 0 0 192 192;" xml:space="preserve">
<style type="text/css">
	.st0{fill:#FFFFFF;}
	.st1{fill:url(#SVGID_1_);}
	.st2{fill:url(#SVGID_2_);}
	.st3{fill:url(#SVGID_3_);}
</style>
<path class="st0" d="M165.4,192H26.6C11.9,192,0,180.1,0,165.4V26.6C0,11.9,11.9,0,26.6,0h138.7C180.1,0,192,11.9,192,26.6v138.7
	C192,180.1,180.1,192,165.4,192z"/>
<g>
	<linearGradient id="SVGID_1_" gradientUnits="userSpaceOnUse" x1="30.5162" y1="87.0886" x2="158.28" y2="108.113">
		<stop  offset="0" style="stop-color:#2A984A"/>
		<stop  offset="0.5279" style="stop-color:#6ECA41"/>
		<stop  offset="1" style="stop-color:#2A974A"/>
	</linearGradient>
	<path class="st1" d="M135.6,114.9L36.9,98.3l0.9-5.4c1.4-8.1,9.1-13.6,17.2-12.3l98.7,16.6l-0.9,5.4
		C151.4,110.7,143.7,116.2,135.6,114.9z"/>
	<linearGradient id="SVGID_2_" gradientUnits="userSpaceOnUse" x1="149.0617" y1="40.8827" x2="33.0109" y2="91.7294">
		<stop  offset="0" style="stop-color:#78CE3F"/>
		<stop  offset="0.4916" style="stop-color:#39B54A"/>
		<stop  offset="0.6142" style="stop-color:#42B948"/>
		<stop  offset="0.8172" style="stop-color:#5CC344"/>
		<stop  offset="1" style="stop-color:#78CE3F"/>
	</linearGradient>
	<path class="st2" d="M147.4,40.3l-27.6-8.9l4.5,8.8L47.9,71.6c-10.4,4.3-15.4,16.2-11.1,26.6l0,0l96.9-39.9l4.9,9.5L147.4,40.3z"/>
	<linearGradient id="SVGID_3_" gradientUnits="userSpaceOnUse" x1="162.3573" y1="101.9576" x2="42.9493" y2="155.0578">
		<stop  offset="3.183470e-02" style="stop-color:#78CE3F"/>
		<stop  offset="0.4916" style="stop-color:#39B54A"/>
		<stop  offset="0.6101" style="stop-color:#42B948"/>
		<stop  offset="0.8064" style="stop-color:#5CC344"/>
		<stop  offset="0.983" style="stop-color:#78CE3F"/>
	</linearGradient>
	<path class="st3" d="M50.4,160.6l97.7-40.4c7.1-3,10.5-11.1,7.6-18.3l-1.9-4.7L43.1,143L50.4,160.6z"/>
</g>
</svg>
