<?xml version="1.0" encoding="utf-8"?>
<!-- Generator: Adobe Illustrator 24.1.2, SVG Export Plug-In . SVG Version: 6.00 Build 0)  -->
<svg version="1.1" xmlns="http://www.w3.org/2000/svg" xmlns:xlink="http://www.w3.org/1999/xlink" x="0px" y="0px"
	 viewBox="0 0 32 32" style="enable-background:new 0 0 32 32;" xml:space="preserve">
<style type="text/css">
	.st0{display:none;}
	.st1{display:inline;fill:url(#SVGID_1_);}
	.st2{display:inline;fill:url(#SVGID_2_);}
	.st3{fill:#FFFFFF;}
	.st4{display:inline;}
	.st5{fill:url(#SVGID_3_);}
	.st6{fill:url(#SVGID_4_);}
	.st7{fill:url(#SVGID_5_);}
	.st8{fill:url(#SVGID_6_);}
	.st9{fill:url(#SVGID_7_);}
	.st10{fill:url(#SVGID_8_);}
	.st11{fill:url(#SVGID_9_);}
	.st12{fill:url(#SVGID_10_);}
	.st13{fill:url(#SVGID_11_);}
</style>
<g id="Слой_2" class="st0">
	<linearGradient id="SVGID_1_" gradientUnits="userSpaceOnUse" x1="50.62" y1="19.8451" x2="62.0132" y2="19.8451">
		<stop  offset="0" style="stop-color:#B3B3B3"/>
		<stop  offset="0.5279" style="stop-color:#FFFFFF"/>
		<stop  offset="1" style="stop-color:#B3B3B3"/>
	</linearGradient>
	<rect x="50.6" y="13.1" class="st1" width="11.4" height="13.5"/>
	<linearGradient id="SVGID_2_" gradientUnits="userSpaceOnUse" x1="50.62" y1="36.8452" x2="63" y2="36.8452">
		<stop  offset="0.2028" style="stop-color:#FFFFFF"/>
		<stop  offset="0.6057" style="stop-color:#CCCCCC"/>
		<stop  offset="0.7006" style="stop-color:#D5D5D5"/>
		<stop  offset="0.8579" style="stop-color:#EFEFEF"/>
		<stop  offset="0.9419" style="stop-color:#FFFFFF"/>
	</linearGradient>
	<rect x="50.6" y="30.7" class="st2" width="12.4" height="12.4"/>
</g>
<g id="Слой_1">
	<path class="st3" d="M27.1,32H4.9C2.2,32,0,29.8,0,27.1V4.9C0,2.2,2.2,0,4.9,0h22.2C29.8,0,32,2.2,32,4.9v22.2
		C32,29.8,29.8,32,27.1,32z"/>
</g>
<g id="Слой_4" class="st0">
	<g class="st4">
		<linearGradient id="SVGID_3_" gradientUnits="userSpaceOnUse" x1="5.1804" y1="14.5223" x2="26.3657" y2="18.0085">
			<stop  offset="0" style="stop-color:#B3B3B3"/>
			<stop  offset="0.5279" style="stop-color:#FFFFFF"/>
			<stop  offset="1" style="stop-color:#B3B3B3"/>
		</linearGradient>
		<path class="st5" d="M22.3,19.1L6.2,16.4l0.1-0.6c0.3-1.5,1.7-2.5,3.2-2.3l16.1,2.7l-0.1,0.6C25.3,18.3,23.8,19.3,22.3,19.1z"/>
		<linearGradient id="SVGID_4_" gradientUnits="userSpaceOnUse" x1="24.8372" y1="6.8606" x2="5.594" y2="15.2919">
			<stop  offset="0.2028" style="stop-color:#FFFFFF"/>
			<stop  offset="0.6057" style="stop-color:#CCCCCC"/>
			<stop  offset="0.7006" style="stop-color:#D5D5D5"/>
			<stop  offset="0.8579" style="stop-color:#EFEFEF"/>
			<stop  offset="0.9419" style="stop-color:#FFFFFF"/>
		</linearGradient>
		<path class="st6" d="M24.6,6.8L20,5.3l0.7,1.5L8.1,12c-1.7,0.7-2.5,2.7-1.8,4.4l0,0l16.1-6.6l0.8,1.6L24.6,6.8z"/>
		<linearGradient id="SVGID_5_" gradientUnits="userSpaceOnUse" x1="27.0404" y1="16.9848" x2="7.2406" y2="25.7897">
			<stop  offset="0.2028" style="stop-color:#FFFFFF"/>
			<stop  offset="0.6057" style="stop-color:#CCCCCC"/>
			<stop  offset="0.7006" style="stop-color:#D5D5D5"/>
			<stop  offset="0.8579" style="stop-color:#EFEFEF"/>
			<stop  offset="0.9419" style="stop-color:#FFFFFF"/>
		</linearGradient>
		<path class="st7" d="M8.5,26.7l16-6.6c1.3-0.5,1.9-2,1.4-3.4l-0.2-0.5L7.3,23.8L8.5,26.7z"/>
	</g>
</g>
<g id="Слой_3" class="st0">
	<g class="st4">
		<linearGradient id="SVGID_6_" gradientUnits="userSpaceOnUse" x1="5.1804" y1="14.5223" x2="26.3657" y2="18.0085">
			<stop  offset="2.532501e-02" style="stop-color:#43B54A"/>
			<stop  offset="0.5279" style="stop-color:#008645"/>
			<stop  offset="1" style="stop-color:#43B54A"/>
		</linearGradient>
		<path class="st8" d="M22.3,19.1L6.2,16.4l0.1-0.6c0.3-1.5,1.7-2.5,3.2-2.3l16.1,2.7l-0.1,0.6C25.3,18.3,23.8,19.3,22.3,19.1z"/>
		<linearGradient id="SVGID_7_" gradientUnits="userSpaceOnUse" x1="24.8372" y1="6.8606" x2="5.594" y2="15.2919">
			<stop  offset="0" style="stop-color:#78CE3F"/>
			<stop  offset="0.4916" style="stop-color:#39B54A"/>
			<stop  offset="0.6142" style="stop-color:#42B948"/>
			<stop  offset="0.8172" style="stop-color:#5CC344"/>
			<stop  offset="1" style="stop-color:#78CE3F"/>
		</linearGradient>
		<path class="st9" d="M24.6,6.8L20,5.3l0.7,1.5L8.1,12c-1.7,0.7-2.5,2.7-1.8,4.4l0,0l16.1-6.6l0.8,1.6L24.6,6.8z"/>
		<linearGradient id="SVGID_8_" gradientUnits="userSpaceOnUse" x1="27.0404" y1="16.9848" x2="7.2406" y2="25.7897">
			<stop  offset="3.183470e-02" style="stop-color:#78CE3F"/>
			<stop  offset="0.4916" style="stop-color:#39B54A"/>
			<stop  offset="0.6101" style="stop-color:#42B948"/>
			<stop  offset="0.8064" style="stop-color:#5CC344"/>
			<stop  offset="0.983" style="stop-color:#78CE3F"/>
		</linearGradient>
		<path class="st10" d="M8.5,26.7l16-6.6c1.3-0.5,1.9-2,1.4-3.4l-0.2-0.5L7.3,23.8L8.5,26.7z"/>
	</g>
</g>
<g id="Слой_5">
	<g>
		<linearGradient id="SVGID_9_" gradientUnits="userSpaceOnUse" x1="5.2031" y1="14.5139" x2="26.5089" y2="18.02">
			<stop  offset="0" style="stop-color:#2A984A"/>
			<stop  offset="0.5279" style="stop-color:#6ECA41"/>
			<stop  offset="1" style="stop-color:#2A974A"/>
		</linearGradient>
		<path class="st11" d="M21.9,19L6.3,16.4l0,0c0.3-1.8,2-3.1,3.9-2.7l15.6,2.6l0,0C25.4,18.1,23.7,19.3,21.9,19z"/>
		<linearGradient id="SVGID_10_" gradientUnits="userSpaceOnUse" x1="24.9717" y1="6.8087" x2="5.6191" y2="15.2878">
			<stop  offset="0" style="stop-color:#78CE3F"/>
			<stop  offset="0.4916" style="stop-color:#39B54A"/>
			<stop  offset="0.6142" style="stop-color:#42B948"/>
			<stop  offset="0.8172" style="stop-color:#5CC344"/>
			<stop  offset="1" style="stop-color:#78CE3F"/>
		</linearGradient>
		<path class="st12" d="M24.7,6.7l-4.6-1.5l0.7,1.5L8.1,11.9c-1.7,0.7-2.6,2.7-1.8,4.4l0,0l16.2-6.6l0.8,1.6L24.7,6.7z"/>
		<linearGradient id="SVGID_11_" gradientUnits="userSpaceOnUse" x1="27.1846" y1="16.9839" x2="7.2721" y2="25.8388">
			<stop  offset="3.183470e-02" style="stop-color:#78CE3F"/>
			<stop  offset="0.4916" style="stop-color:#39B54A"/>
			<stop  offset="0.6101" style="stop-color:#42B948"/>
			<stop  offset="0.8064" style="stop-color:#5CC344"/>
			<stop  offset="0.983" style="stop-color:#78CE3F"/>
		</linearGradient>
		<path class="st13" d="M8.5,26.8l15.5-6.4c1.6-0.7,2.4-2.5,1.7-4.1l0,0L7.3,23.8L8.5,26.8z"/>
	</g>
</g>
</svg>
